<svg viewBox="0 0 64 64" xmlns="http://www.w3.org/2000/svg" role="img" aria-label="Thali">
  <rect width="64" height="64" rx="16" fill="#EFE3C2"/>

  <!-- progress / tracking arc + arrowhead -->
  <path d="M14 27 A20 20 0 0 1 50 27" fill="none" stroke="#123524" stroke-width="3.2" stroke-linecap="round"/>
  <path d="M50 27 L45 24 M50 27 L44 29.5" fill="none" stroke="#123524" stroke-width="3.2" stroke-linecap="round" stroke-linejoin="round"/>

  <!-- progress dots -->
  <circle cx="39" cy="15.5" r="1.9" fill="#85A947"/>
  <circle cx="45.5" cy="18.5" r="1.9" fill="#85A947"/>

  <!-- leaf -->
  <path d="M30 33 C23.5 26 27 15.5 35.5 13.5 C37.5 22 37 30 30 33 Z" fill="#85A947"/>
  <path d="M33.5 18 C31.5 23 30.5 28 30.2 32" fill="none" stroke="#EFE3C2" stroke-width="1.4" stroke-linecap="round"/>

  <!-- bowl -->
  <path d="M16 36 a16 16 0 0 0 32 0 Z" fill="#3E7B27"/>
  <ellipse cx="32" cy="36" rx="16" ry="3.2" fill="#123524"/>
</svg>
